<?xml version="1.0" standalone="no"?><!DOCTYPE svg PUBLIC "-//W3C//DTD SVG 1.1//EN" "http://www.w3.org/Graphics/SVG/1.1/DTD/svg11.dtd"><svg t="1698138197873" class="icon" viewBox="0 0 1024 1024" version="1.1" xmlns="http://www.w3.org/2000/svg" p-id="5729" xmlns:xlink="http://www.w3.org/1999/xlink" width="200" height="200"><path d="M539.989333 82.261333c-76.117333-22.357333-268.672-44.8-407.509333 67.2 264.192-17.92 134.357333 147.754667 98.517333 192.554667-62.208 66.688-102.4 159.786667-102.997333 257.536v-2.261333 2.261333c0.981333 160.213333 103.68 298.026667 246.314667 351.488a236.373333 236.373333 0 0 1-31.36-116.437333c0-53.76 17.92-102.997333 44.8-138.794667-44.8-17.92-62.72-44.8-62.72-44.8s-40.32-40.32 17.92-89.6c4.48-62.634667 31.36-147.754667 67.157333-192.512 8.96-13.44 35.84 58.197333 35.84 58.197333 17.92-26.88 40.32-31.36 49.237333-31.36h4.48c8.96 4.48 31.36 4.48 49.28 31.36 0 0 22.4-71.68 35.84-58.197333 35.84 44.8 62.677333 129.877333 67.157334 192.554667 58.197333 49.237333 17.92 89.557333 17.92 89.557333s-17.92 26.88-62.72 44.8a231.381333 231.381333 0 0 1 49.28 143.274667c0 44.8-8.96 89.6-31.36 120.917333 111.957333-40.32 201.514667-129.877333 237.354666-241.834667 17.92-44.8 26.88-94.037333 31.36-147.754666 4.48-111.957333-49.28-331.392-246.314666-438.869334-31.36-22.4-67.157333-35.84-107.477334-49.28z m22.4 631.466667l-4.48-4.522667a123.306667 123.306667 0 0 0-111.957333 0l-8.96 8.96c-13.44 22.4-22.4 44.8-22.4 71.68 4.48 4.48 13.44 4.48 22.4 8.96 31.36 8.96 35.84 13.397333 35.84 22.357334 0 4.48-8.96 17.92-35.84 17.92h-17.92c0 8.96 8.96 22.4 13.44 31.36l4.48 4.48c35.84 53.76 89.6 53.76 125.397333 0l4.48-4.48c4.48-8.96 8.96-17.92 13.44-31.36h-13.44c-26.88 0-35.84-8.96-35.84-17.92 0-4.48 4.48-13.397333 35.84-22.357334 8.96-4.48 17.92-4.48 22.357334-8.96-4.437333-26.88-8.96-49.28-22.357334-71.68l-4.48-4.48z" p-id="5730"></path></svg>